HIERARCHY
ROOT Hips
{
	OFFSET -49.260769 -43.699543 87.056984
	CHANNELS 6 Xposition Yposition Zposition Zrotation Yrotation Xrotation
	JOINT Spine
	{
		OFFSET 0.000000 2.080109 8.814247
		CHANNELS 6 Xposition Yposition Zposition Zrotation Yrotation Xrotation
		JOINT Spine1
		{
			OFFSET 0.000000 0.000000 8.844139
			CHANNELS 6 Xposition Yposition Zposition Zrotation Yrotation Xrotation
			JOINT Spine2
			{
				OFFSET 0.000000 0.000000 11.682266
				CHANNELS 6 Xposition Yposition Zposition Zrotation Yrotation Xrotation
				JOINT Spine3
				{
					OFFSET 0.000000 0.000004 11.746696
					CHANNELS 6 Xposition Yposition Zposition Zrotation Yrotation Xrotation
					JOINT Neck
					{
						OFFSET 0.000000 0.000000 17.658264
						CHANNELS 6 Xposition Yposition Zposition Zrotation Yrotation Xrotation
						JOINT Neck1
						{
							OFFSET 0.000000 0.000000 5.101517
							CHANNELS 6 Xposition Yposition Zposition Zrotation Yrotation Xrotation
							JOINT Head
							{
								OFFSET 0.000000 0.000000 5.101517
								CHANNELS 6 Xposition Yposition Zposition Zrotation Yrotation Xrotation
								JOINT HeadEnd
								{
									OFFSET 0.000000 0.000000 11.655090
									CHANNELS 6 Xposition Yposition Zposition Zrotation Yrotation Xrotation
									End Site
									{
										OFFSET 0.000000 0.000000 0.100006
									}
								}
							}
						}
					}
					JOINT RightShoulder
					{
						OFFSET -2.625389 0.000000 11.175217
						CHANNELS 6 Xposition Yposition Zposition Zrotation Yrotation Xrotation
						JOINT RightArm
						{
							OFFSET 0.000000 0.000000 10.434723
							CHANNELS 6 Xposition Yposition Zposition Zrotation Yrotation Xrotation
							JOINT RightForeArm
							{
								OFFSET 0.000000 0.000004 29.628418
								CHANNELS 6 Xposition Yposition Zposition Zrotation Yrotation Xrotation
								JOINT RightHand
								{
									OFFSET 0.000000 0.000000 22.857605
									CHANNELS 6 Xposition Yposition Zposition Zrotation Yrotation Xrotation
									JOINT RightHandThumb1
									{
										OFFSET -2.867321 -2.944290 3.959564
										CHANNELS 6 Xposition Yposition Zposition Zrotation Yrotation Xrotation
										JOINT RightHandThumb2
										{
											OFFSET 0.000000 0.000000 3.350403
											CHANNELS 6 Xposition Yposition Zposition Zrotation Yrotation Xrotation
											JOINT RightHandThumb3
											{
												OFFSET 0.000000 0.000000 3.756516
												CHANNELS 6 Xposition Yposition Zposition Zrotation Yrotation Xrotation
												JOINT RightHandThumb4
												{
													OFFSET 0.000000 0.000000 3.147339
													CHANNELS 6 Xposition Yposition Zposition Zrotation Yrotation Xrotation
													End Site
													{
														OFFSET 0.000000 0.000000 0.100006
													}
												}
											}
										}
									}
									JOINT RightHandIndex1
									{
										OFFSET -0.086754 -2.345280 10.030899
										CHANNELS 6 Xposition Yposition Zposition Zrotation Yrotation Xrotation
										JOINT RightHandIndex2
										{
											OFFSET 0.000000 0.000000 4.061096
											CHANNELS 6 Xposition Yposition Zposition Zrotation Yrotation Xrotation
											JOINT RightHandIndex3
											{
												OFFSET 0.000000 0.000000 3.248871
												CHANNELS 6 Xposition Yposition Zposition Zrotation Yrotation Xrotation
												JOINT RightHandIndex4
												{
													OFFSET 0.000000 0.000000 2.639709
													CHANNELS 6 Xposition Yposition Zposition Zrotation Yrotation Xrotation
													End Site
													{
														OFFSET 0.000000 0.000000 0.100006
													}
												}
											}
										}
									}
									JOINT RightHandMiddle1
									{
										OFFSET 0.104103 -0.006767 9.502945
										CHANNELS 6 Xposition Yposition Zposition Zrotation Yrotation Xrotation
										JOINT RightHandMiddle2
										{
											OFFSET 0.000000 0.000000 4.568726
											CHANNELS 6 Xposition Yposition Zposition Zrotation Yrotation Xrotation
											JOINT RightHandMiddle3
											{
												OFFSET 0.000000 0.000000 3.654984
												CHANNELS 6 Xposition Yposition Zposition Zrotation Yrotation Xrotation
												JOINT RightHandMiddle4
												{
													OFFSET 0.000000 0.000000 2.741241
													CHANNELS 6 Xposition Yposition Zposition Zrotation Yrotation Xrotation
													End Site
													{
														OFFSET 0.000000 0.000000 0.100006
													}
												}
											}
										}
									}
									JOINT RightHandRing1
									{
										OFFSET 0.086754 2.267441 8.921707
										CHANNELS 6 Xposition Yposition Zposition Zrotation Yrotation Xrotation
										JOINT RightHandRing2
										{
											OFFSET 0.000000 0.000000 4.061096
											CHANNELS 6 Xposition Yposition Zposition Zrotation Yrotation Xrotation
											JOINT RightHandRing3
											{
												OFFSET 0.000000 0.000000 3.654984
												CHANNELS 6 Xposition Yposition Zposition Zrotation Yrotation Xrotation
												JOINT RightHandRing4
												{
													OFFSET 0.000000 0.000000 2.741241
													CHANNELS 6 Xposition Yposition Zposition Zrotation Yrotation Xrotation
													End Site
													{
														OFFSET 0.000000 0.000000 0.100006
													}
												}
											}
										}
									}
									JOINT RightHandPinky1
									{
										OFFSET -0.173504 4.467197 7.976990
										CHANNELS 6 Xposition Yposition Zposition Zrotation Yrotation Xrotation
										JOINT RightHandPinky2
										{
											OFFSET 0.000000 0.000000 3.350403
											CHANNELS 6 Xposition Yposition Zposition Zrotation Yrotation Xrotation
											JOINT RightHandPinky3
											{
												OFFSET 0.000000 0.000000 2.842758
												CHANNELS 6 Xposition Yposition Zposition Zrotation Yrotation Xrotation
												JOINT RightHandPinky4
												{
													OFFSET 0.000000 0.000000 2.639709
													CHANNELS 6 Xposition Yposition Zposition Zrotation Yrotation Xrotation
													End Site
													{
														OFFSET 0.000000 0.000000 0.100006
													}
												}
											}
										}
									}
									JOINT RightForeArmEnd
									{
										OFFSET 0.000000 0.000000 0.000000
										CHANNELS 6 Xposition Yposition Zposition Zrotation Yrotation Xrotation
										End Site
										{
											OFFSET 0.000000 0.000000 0.100006
										}
									}
								}
								JOINT RightArmEnd
								{
									OFFSET 0.000000 0.000000 0.000000
									CHANNELS 6 Xposition Yposition Zposition Zrotation Yrotation Xrotation
									End Site
									{
										OFFSET 0.000000 0.000000 0.100006
									}
								}
							}
						}
					}
					JOINT LeftShoulder
					{
						OFFSET 2.625389 0.000000 11.175217
						CHANNELS 6 Xposition Yposition Zposition Zrotation Yrotation Xrotation
						JOINT LeftArm
						{
							OFFSET 0.000000 0.000000 10.813629
							CHANNELS 6 Xposition Yposition Zposition Zrotation Yrotation Xrotation
							JOINT LeftForeArm
							{
								OFFSET 0.000000 0.000004 28.724777
								CHANNELS 6 Xposition Yposition Zposition Zrotation Yrotation Xrotation
								JOINT LeftHand
								{
									OFFSET 0.644382 0.328873 25.716171
									CHANNELS 6 Xposition Yposition Zposition Zrotation Yrotation Xrotation
									JOINT LeftHandThumb1
									{
										OFFSET 2.867325 -2.944290 3.959564
										CHANNELS 6 Xposition Yposition Zposition Zrotation Yrotation Xrotation
										JOINT LeftHandThumb2
										{
											OFFSET 0.000000 0.000000 3.350403
											CHANNELS 6 Xposition Yposition Zposition Zrotation Yrotation Xrotation
											JOINT LeftHandThumb3
											{
												OFFSET 0.000000 0.000000 3.756516
												CHANNELS 6 Xposition Yposition Zposition Zrotation Yrotation Xrotation
												JOINT LeftHandThumb4
												{
													OFFSET 0.000000 0.000000 3.100006
													CHANNELS 6 Xposition Yposition Zposition Zrotation Yrotation Xrotation
													End Site
													{
														OFFSET 0.000000 0.000000 0.100006
													}
												}
											}
										}
									}
									JOINT LeftHandIndex1
									{
										OFFSET 0.086754 -2.345280 10.030899
										CHANNELS 6 Xposition Yposition Zposition Zrotation Yrotation Xrotation
										JOINT LeftHandIndex2
										{
											OFFSET 0.000000 0.000000 4.061096
											CHANNELS 6 Xposition Yposition Zposition Zrotation Yrotation Xrotation
											JOINT LeftHandIndex3
											{
												OFFSET 0.000000 0.000000 3.248871
												CHANNELS 6 Xposition Yposition Zposition Zrotation Yrotation Xrotation
												JOINT LeftHandIndex4
												{
													OFFSET 0.000000 0.000000 2.639709
													CHANNELS 6 Xposition Yposition Zposition Zrotation Yrotation Xrotation
													End Site
													{
														OFFSET 0.000000 0.000000 0.100006
													}
												}
											}
										}
									}
									JOINT LeftHandMiddle1
									{
										OFFSET -0.104103 -0.006767 9.502945
										CHANNELS 6 Xposition Yposition Zposition Zrotation Yrotation Xrotation
										JOINT LeftHandMiddle2
										{
											OFFSET 0.000000 0.000000 4.568726
											CHANNELS 6 Xposition Yposition Zposition Zrotation Yrotation Xrotation
											JOINT LeftHandMiddle3
											{
												OFFSET 0.000000 0.000000 3.654984
												CHANNELS 6 Xposition Yposition Zposition Zrotation Yrotation Xrotation
												JOINT LeftHandMiddle4
												{
													OFFSET 0.000000 0.000000 2.741241
													CHANNELS 6 Xposition Yposition Zposition Zrotation Yrotation Xrotation
													End Site
													{
														OFFSET 0.000000 0.000000 0.100006
													}
												}
											}
										}
									}
									JOINT LeftHandRing1
									{
										OFFSET -0.086754 2.267441 8.921707
										CHANNELS 6 Xposition Yposition Zposition Zrotation Yrotation Xrotation
										JOINT LeftHandRing2
										{
											OFFSET 0.000000 0.000000 4.061096
											CHANNELS 6 Xposition Yposition Zposition Zrotation Yrotation Xrotation
											JOINT LeftHandRing3
											{
												OFFSET 0.000000 0.000000 3.654984
												CHANNELS 6 Xposition Yposition Zposition Zrotation Yrotation Xrotation
												JOINT LeftHandRing4
												{
													OFFSET 0.000000 0.000000 2.741241
													CHANNELS 6 Xposition Yposition Zposition Zrotation Yrotation Xrotation
													End Site
													{
														OFFSET 0.000000 0.000000 0.100006
													}
												}
											}
										}
									}
									JOINT LeftHandPinky1
									{
										OFFSET 0.173504 4.467197 7.976990
										CHANNELS 6 Xposition Yposition Zposition Zrotation Yrotation Xrotation
										JOINT LeftHandPinky2
										{
											OFFSET 0.000000 0.000000 3.350403
											CHANNELS 6 Xposition Yposition Zposition Zrotation Yrotation Xrotation
											JOINT LeftHandPinky3
											{
												OFFSET 0.000000 0.000000 2.842758
												CHANNELS 6 Xposition Yposition Zposition Zrotation Yrotation Xrotation
												JOINT LeftHandPinky4
												{
													OFFSET 0.000000 0.000000 2.639709
													CHANNELS 6 Xposition Yposition Zposition Zrotation Yrotation Xrotation
													End Site
													{
														OFFSET 0.000000 0.000000 0.100006
													}
												}
											}
										}
									}
									JOINT LeftForeArmEnd
									{
										OFFSET 0.000000 0.000000 0.000000
										CHANNELS 6 Xposition Yposition Zposition Zrotation Yrotation Xrotation
										End Site
										{
											OFFSET 0.000000 0.000000 0.100006
										}
									}
								}
								JOINT LeftArmEnd
								{
									OFFSET 0.000000 0.000000 0.000000
									CHANNELS 6 Xposition Yposition Zposition Zrotation Yrotation Xrotation
									End Site
									{
										OFFSET 0.000000 0.000000 0.100006
									}
								}
							}
						}
					}
				}
			}
		}
	}
	JOINT RightUpLeg
	{
		OFFSET -11.289944 0.000000 0.000000
		CHANNELS 6 Xposition Yposition Zposition Zrotation Yrotation Xrotation
		JOINT RightLeg
		{
			OFFSET 0.000000 -0.000004 -38.200321
			CHANNELS 6 Xposition Yposition Zposition Zrotation Yrotation Xrotation
			JOINT RightFoot
			{
				OFFSET 0.000000 -0.000004 -39.900856
				CHANNELS 6 Xposition Yposition Zposition Zrotation Yrotation Xrotation
				JOINT RightToeBase
				{
					OFFSET 0.000000 -15.261639 0.000002
					CHANNELS 6 Xposition Yposition Zposition Zrotation Yrotation Xrotation
					JOINT RightToeBaseEnd
					{
						OFFSET 0.000000 -7.370712 0.000000
						CHANNELS 6 Xposition Yposition Zposition Zrotation Yrotation Xrotation
						End Site
						{
							OFFSET 0.000000 0.000000 0.100000
						}
					}
				}
				JOINT RightLegEnd
				{
					OFFSET 0.000000 0.000000 0.000000
					CHANNELS 6 Xposition Yposition Zposition Zrotation Yrotation Xrotation
					End Site
					{
						OFFSET 0.000000 0.000000 0.100000
					}
				}
			}
			JOINT RightUpLegEnd
			{
				OFFSET 0.000000 0.000000 0.000000
				CHANNELS 6 Xposition Yposition Zposition Zrotation Yrotation Xrotation
				End Site
				{
					OFFSET 0.000000 0.000000 0.099998
				}
			}
		}
	}
	JOINT LeftUpLeg
	{
		OFFSET 11.315662 0.000000 0.000000
		CHANNELS 6 Xposition Yposition Zposition Zrotation Yrotation Xrotation
		JOINT LeftLeg
		{
			OFFSET 0.000000 -0.000004 -38.200321
			CHANNELS 6 Xposition Yposition Zposition Zrotation Yrotation Xrotation
			JOINT LeftFoot
			{
				OFFSET 0.000000 -0.000004 -39.900856
				CHANNELS 6 Xposition Yposition Zposition Zrotation Yrotation Xrotation
				JOINT LeftToeBase
				{
					OFFSET 0.000000 -15.261639 0.000002
					CHANNELS 6 Xposition Yposition Zposition Zrotation Yrotation Xrotation
					JOINT LeftToeBaseEnd
					{
						OFFSET 0.000000 -7.539993 0.000000
						CHANNELS 6 Xposition Yposition Zposition Zrotation Yrotation Xrotation
						End Site
						{
							OFFSET 0.000000 0.000000 0.100000
						}
					}
				}
				JOINT LeftLegEnd
				{
					OFFSET 0.000000 0.000000 0.000000
					CHANNELS 6 Xposition Yposition Zposition Zrotation Yrotation Xrotation
					End Site
					{
						OFFSET 0.000000 0.000000 0.100000
					}
				}
			}
			JOINT LeftUpLegEnd
			{
				OFFSET 0.000000 0.000000 0.000000
				CHANNELS 6 Xposition Yposition Zposition Zrotation Yrotation Xrotation
				End Site
				{
					OFFSET 0.000000 0.000000 0.099998
				}
			}
		}
	}
}
MOTION
Frames: 2
Frame Time: 0.016667
-13.915516 -52.628815 87.208389 33.920782 5.006047 0.956006 0.000000 2.080117 8.814256 -0.836329 -0.682930 2.962345 0.000000 -0.000001 8.844126 0.538489 1.047061 3.585215 -0.000005 0.000001 11.682291 -0.858543 0.155221 0.124711 -0.000005 -0.000003 11.746697 -0.470189 0.777877 -0.265535 0.000010 -0.000006 17.658285 -12.023838 -9.907317 15.623902 0.000007 0.000004 5.101520 -12.702732 6.819756 -5.785115 -0.000004 0.000010 5.101538 2.346305 -0.191548 -26.592455 -0.000000 0.000006 11.655059 0.000001 -0.000001 0.000001 -2.625383 -0.000003 11.175214 1.409606 -89.218021 -0.375343 -0.000006 -0.000004 10.434721 62.753053 -12.222773 -6.222003 0.000010 0.000010 29.628408 21.602013 0.784069 132.272200 -0.000013 0.000013 22.857559 54.701711 4.838252 23.335864 -2.867333 -2.944256 3.959583 34.149071 -30.691530 32.950178 -0.000007 0.000000 3.350395 -41.620758 7.733413 -69.832626 0.000010 0.000006 3.756521 -28.281928 11.021068 -48.093981 0.000003 0.000008 3.147326 0.000000 0.000001 -0.000001 -0.086766 -2.345274 10.030931 35.370678 -121.222293 -29.670803 0.000010 -0.000000 4.061093 -34.505716 -78.226409 42.398591 0.000023 -0.000006 3.248865 -35.005727 -78.226409 42.398546 0.000006 -0.000016 2.639680 0.000001 0.000002 0.000001 0.104107 -0.006751 9.502954 25.353293 -119.925541 -15.659959 0.000023 -0.000015 4.568709 -17.794043 -81.713986 21.091416 -0.000025 -0.000004 3.654969 -18.294112 -81.713993 21.091506 -0.000006 -0.000014 2.741229 -0.000003 0.000005 0.000003 0.086755 2.267469 8.921724 6.734947 -125.325188 6.127293 0.000025 0.000008 4.061126 41.985149 -85.171004 -46.384050 0.000037 -0.000013 3.654982 42.984303 -85.170990 -46.382616 -0.000011 0.000005 2.741211 -0.000001 -0.000001 -0.000001 -0.173520 4.467204 7.976991 -6.760198 -129.280974 21.860481 0.000013 -0.000002 3.350402 64.166588 -78.714536 -76.922151 0.000001 -0.000011 2.842751 66.166426 -78.714515 -76.921993 0.000001 -0.000004 2.639710 0.000001 -0.000001 -0.000002 -0.000014 0.000016 -0.000001 -0.000000 -0.000001 0.000001 0.000004 0.000019 -0.000013 0.000001 0.000002 -0.000001 2.625390 -0.000006 11.175214 -3.097069 83.831461 -0.291437 0.000024 -0.000004 10.813635 80.456828 54.902293 45.372089 -0.000006 -0.000015 28.724760 -19.152047 2.725544 83.076779 0.644373 0.328866 25.716145 -59.139200 3.610185 -4.109960 2.867319 -2.944296 3.959549 -32.603925 26.788536 38.171158 0.000008 0.000004 3.350400 33.695232 -10.326613 -56.770282 -0.000001 0.000025 3.756520 22.446971 -10.865007 -38.787053 0.000003 0.000004 3.100019 0.000001 -0.000001 0.000002 0.086762 -2.345280 10.030884 66.278544 88.056861 51.556792 0.000023 -0.000002 4.061129 -9.224357 62.849379 -15.869955 0.000007 0.000000 3.248879 -9.726189 62.849345 -15.871927 -0.000008 0.000003 2.639708 0.000001 -0.000002 -0.000000 -0.104084 -0.006775 9.502952 -79.656514 96.652135 -89.189997 0.000013 0.000004 4.568735 -3.361671 64.073492 -6.177697 0.000016 0.000003 3.655004 -3.869373 64.073322 -6.183903 -0.000000 -0.000006 2.741257 0.000003 0.000001 0.000001 -0.086718 2.267434 8.921690 -61.799121 106.399567 -61.547258 0.000006 0.000004 4.061093 4.940740 68.149517 8.773122 0.000021 -0.000008 3.655010 5.943556 68.149428 8.775588 -0.000007 -0.000000 2.741242 -0.000000 0.000000 0.000000 0.173526 4.467180 7.976989 -74.875566 113.466347 -61.522075 0.000022 -0.000007 3.350407 15.853489 66.709044 26.842686 0.000014 0.000005 2.842764 17.853495 66.709030 26.842696 0.000002 -0.000002 2.639709 -0.000000 -0.000000 -0.000000 -0.000003 -0.000006 -0.000001 -0.000001 -0.000001 -0.000000 -0.000001 -0.000005 0.000001 -0.000001 0.000001 -0.000001 -11.289944 0.000007 0.000007 -10.779092 -4.027705 10.278609 0.000002 -0.000001 -38.200314 -1.056779 0.268948 14.145030 -0.000000 0.000001 -39.900856 -8.670756 1.671579 20.919720 0.000005 -15.261639 -0.000005 -1.374793 -1.264452 -39.200406 0.000004 -7.370705 -0.000000 0.000000 -0.000001 -0.000000 0.000004 0.000001 0.000001 -0.000000 -0.000001 -0.000002 -0.000000 0.000000 -0.000006 0.000000 0.000000 0.000003 11.315664 0.000005 0.000010 -20.336231 -6.422961 -12.118918 0.000002 -0.000002 -38.200325 0.495414 -0.253902 27.242003 -0.000002 0.000002 -39.900856 -1.184915 -5.059353 12.755904 0.000001 -15.261642 0.000005 0.802155 -0.577811 -26.384104 -0.000001 -7.539986 0.000000 0.000001 0.000000 -0.000000 -0.000000 -0.000001 -0.000001 0.000002 -0.000000 0.000001 0.000001 0.000005 0.000001 -0.000001 0.000000 -0.000001 
-13.928242 -52.650925 87.149055 34.402150 5.042044 1.006370 -0.000002 2.080108 8.814252 -0.956228 -0.787291 3.025692 0.000001 0.000002 8.844126 0.427489 1.056784 3.853103 0.000003 -0.000000 11.682273 -1.220677 0.022387 -0.074572 0.000001 0.000005 11.746718 -0.679939 0.775777 -0.435697 -0.000000 -0.000001 17.658272 -11.790671 -9.112077 14.677436 0.000002 -0.000003 5.101506 -13.000173 6.961386 -6.350779 0.000003 0.000004 5.101510 2.447156 -0.256409 -26.763038 -0.000000 0.000006 11.655089 -0.000001 -0.000001 0.000000 -2.625388 -0.000001 11.175209 1.359142 -89.656253 -0.187571 -0.000023 0.000002 10.434715 73.325284 -12.633938 -7.864729 0.000004 0.000000 29.628403 23.782434 1.157666 135.150989 -0.000008 -0.000010 22.857592 55.270253 8.218565 26.848312 -2.867317 -2.944260 3.959570 34.341928 -31.082087 32.423799 -0.000010 0.000000 3.350408 -42.372929 7.378206 -71.111094 0.000006 0.000000 3.756518 -28.865124 10.985465 -49.024465 -0.000003 0.000001 3.147309 0.000002 -0.000000 -0.000001 -0.086754 -2.345273 10.030898 32.787886 -123.190617 -25.845006 0.000000 -0.000002 4.061121 -41.241515 -79.492187 49.262999 0.000025 0.000001 3.248878 -41.741653 -79.492200 49.263163 0.000008 -0.000011 2.639695 -0.000002 0.000003 0.000002 0.104112 -0.006767 9.502939 23.067046 -122.311080 -11.797606 0.000026 0.000012 4.568731 -23.959728 -83.483087 27.308082 0.000012 -0.000005 3.654984 -24.459582 -83.483066 27.307952 0.000001 -0.000012 2.741241 -0.000001 0.000002 0.000002 0.086776 2.267451 8.921692 5.859267 -128.313040 8.852560 0.000018 -0.000003 4.061149 64.900061 -86.260590 -69.358795 0.000014 0.000000 3.654998 65.900056 -86.260590 -69.358460 0.000006 -0.000002 2.741242 -0.000001 0.000002 0.000002 -0.173485 4.467201 7.976996 -6.561804 -132.661507 23.478634 0.000008 0.000005 3.350381 74.528845 -78.989635 -87.482545 0.000028 -0.000011 2.842767 76.528773 -78.989628 -87.482456 -0.000003 -0.000008 2.639710 0.000000 0.000001 -0.000000 -0.000005 0.000009 0.000001 0.000002 0.000000 -0.000001 0.000001 -0.000011 0.000001 -0.000002 0.000001 0.000000 2.625392 -0.000002 11.175204 -3.173606 84.196521 -0.294964 -0.000014 0.000008 10.813635 80.534330 55.356621 44.504140 -0.000007 -0.000020 28.724802 -19.300421 2.789190 82.762953 0.644381 0.328866 25.716154 -59.655446 3.596700 -3.962165 2.867321 -2.944300 3.959572 -32.603922 26.788531 38.171158 0.000000 0.000011 3.350407 33.695232 -10.326609 -56.770289 -0.000010 0.000004 3.756519 22.446962 -10.865013 -38.787053 -0.000001 -0.000001 3.100003 -0.000002 -0.000002 0.000002 0.086751 -2.345271 10.030893 63.687184 88.001735 48.652182 0.000021 -0.000005 4.061099 -9.227645 62.808869 -15.871058 0.000017 -0.000003 3.248877 -9.727858 62.808910 -15.871372 0.000003 0.000001 2.639722 0.000001 -0.000001 0.000002 -0.104108 -0.006768 9.502951 -80.645635 96.632492 -90.392622 0.000002 0.000000 4.568727 -3.354374 64.001830 -6.168783 0.000020 0.000007 3.654988 -3.858805 64.001734 -6.171418 0.000003 -0.000013 2.741256 0.000004 -0.000000 0.000000 -0.086719 2.267444 8.921700 -62.301181 106.324039 -62.181421 0.000005 -0.000004 4.061099 4.915609 68.030159 8.743162 -0.000007 -0.000014 3.654988 5.912926 68.030125 8.741609 -0.000004 0.000001 2.741256 0.000002 -0.000000 0.000001 0.173510 4.467190 7.976977 -75.446741 113.411125 -62.206740 -0.000001 -0.000013 3.350402 15.648332 66.547441 26.629253 0.000013 -0.000007 2.842741 17.648306 66.547441 26.627631 0.000009 -0.000004 2.639694 0.000001 -0.000001 -0.000000 -0.000008 0.000000 0.000013 0.000005 -0.000002 0.000001 0.000002 -0.000009 0.000031 0.000000 0.000000 -0.000000 -11.289940 -0.000003 -0.000000 -11.049977 -4.150967 10.508853 -0.000000 -0.000005 -38.200321 -1.073546 0.269602 13.869204 0.000002 -0.000002 -39.900860 -8.936678 1.644249 20.792474 0.000001 -15.261633 0.000000 -1.352147 -1.227078 -39.145030 0.000000 -7.370712 0.000001 0.000000 0.000000 0.000000 -0.000000 0.000003 0.000001 0.000000 0.000000 0.000003 0.000006 -0.000000 -0.000008 -0.000003 -0.000000 0.000000 11.315660 0.000000 0.000005 -20.722234 -6.511521 -12.341946 0.000003 -0.000005 -38.200306 0.495620 -0.256289 27.581320 0.000000 -0.000003 -39.900860 -1.279911 -5.042914 12.591577 0.000000 -15.261642 0.000003 0.806345 -0.562612 -26.410924 -0.000000 -7.539984 -0.000000 -0.000002 -0.000000 0.000000 0.000000 -0.000001 -0.000003 0.000001 0.000000 -0.000001 0.000000 -0.000000 0.000000 0.000000 0.000000 -0.000000 
